<svg width="44" height="45" viewBox="0 0 44 45" fill="none" xmlns="http://www.w3.org/2000/svg">
<path fill-rule="evenodd" clip-rule="evenodd" d="M22.3749 0.531196C34.2835 0.531196 43.9374 10.185 43.9374 22.0937C43.9374 34.0022 34.2835 43.6562 22.3749 43.6562C10.4663 43.6562 0.812416 34.0022 0.812416 22.0937C0.812416 10.185 10.4663 0.531196 22.3749 0.531196Z" fill="#2F3FCA"/>
<path fill-rule="evenodd" clip-rule="evenodd" d="M13 22.053C13 26.7761 16.4303 30.7036 20.9167 31.5V24.6386H18.5417V22H20.9167V19.8886C20.9167 17.5136 22.447 16.1947 24.6114 16.1947C25.297 16.1947 26.0364 16.3 26.722 16.4053V18.8333H25.5083C24.347 18.8333 24.0833 19.4136 24.0833 20.153V22H26.6167L26.1947 24.6386H24.0833V31.5C28.5697 30.7036 32 26.7769 32 22.053C32 16.7988 27.725 12.5 22.5 12.5C17.275 12.5 13 16.7988 13 22.053Z" fill="white"/>
</svg>
