<svg width="44" height="45" viewBox="0 0 44 45" fill="none" xmlns="http://www.w3.org/2000/svg">
<path fill-rule="evenodd" clip-rule="evenodd" d="M22.3749 0.531196C34.2835 0.531196 43.9374 10.185 43.9374 22.0937C43.9374 34.0022 34.2835 43.6562 22.3749 43.6562C10.4663 43.6562 0.812416 34.0022 0.812416 22.0937C0.812416 10.185 10.4663 0.531196 22.3749 0.531196Z" fill="#E757A5"/>
<path d="M22.5 19.006C20.8514 19.006 19.5059 20.3514 19.5059 22C19.5059 23.6487 20.8514 24.9941 22.5 24.9941C24.1486 24.9941 25.494 23.6487 25.494 22C25.494 20.3514 24.1486 19.006 22.5 19.006ZM31.4799 22C31.4799 20.7602 31.4911 19.5316 31.4215 18.294C31.3518 16.8565 31.0239 15.5807 29.9727 14.5295C28.9193 13.4761 27.6458 13.1504 26.2083 13.0808C24.9684 13.0112 23.7398 13.0224 22.5022 13.0224C21.2624 13.0224 20.0338 13.0112 18.7962 13.0808C17.3587 13.1504 16.0829 13.4784 15.0317 14.5295C13.9783 15.5829 13.6526 16.8565 13.583 18.294C13.5134 19.5338 13.5246 20.7624 13.5246 22C13.5246 23.2376 13.5134 24.4685 13.583 25.7061C13.6526 27.1436 13.9806 28.4194 15.0317 29.4705C16.0851 30.524 17.3587 30.8496 18.7962 30.9193C20.036 30.9889 21.2646 30.9777 22.5022 30.9777C23.7421 30.9777 24.9707 30.9889 26.2083 30.9193C27.6458 30.8496 28.9216 30.5217 29.9727 29.4705C31.0262 28.4171 31.3518 27.1436 31.4215 25.7061C31.4933 24.4685 31.4799 23.2399 31.4799 22ZM22.5 26.6068C19.9507 26.6068 17.8932 24.5493 17.8932 22C17.8932 19.4507 19.9507 17.3933 22.5 17.3933C25.0493 17.3933 27.1067 19.4507 27.1067 22C27.1067 24.5493 25.0493 26.6068 22.5 26.6068ZM27.2954 18.2805C26.7002 18.2805 26.2195 17.7998 26.2195 17.2046C26.2195 16.6094 26.7002 16.1287 27.2954 16.1287C27.8906 16.1287 28.3713 16.6094 28.3713 17.2046C28.3715 17.346 28.3437 17.4859 28.2897 17.6166C28.2357 17.7472 28.1565 17.8658 28.0566 17.9658C27.9566 18.0657 27.8379 18.145 27.7073 18.199C27.5767 18.253 27.4367 18.2807 27.2954 18.2805Z" fill="white"/>
</svg>
