<svg width="44" height="45" viewBox="0 0 44 45" fill="none" xmlns="http://www.w3.org/2000/svg">
<path fill-rule="evenodd" clip-rule="evenodd" d="M22.3749 0.531196C34.2835 0.531196 43.9374 10.185 43.9374 22.0937C43.9374 34.0022 34.2835 43.6562 22.3749 43.6562C10.4663 43.6562 0.812416 34.0022 0.812416 22.0937C0.812416 10.185 10.4663 0.531196 22.3749 0.531196Z" fill="#393939"/>
<path d="M29.9857 16.9568C29.0135 16.7485 28.134 16.2454 27.4735 15.5199C26.8129 14.7943 26.4052 13.8835 26.3089 12.9181V12.5H22.9442V25.4903C22.9449 26.0667 22.7594 26.6287 22.4141 27.0966C22.0687 27.5646 21.581 27.9149 21.02 28.0978C20.459 28.2807 19.8532 28.287 19.2884 28.1157C18.7235 27.9445 18.2282 27.6045 17.8728 27.1437C17.5543 26.7359 17.3593 26.2494 17.3098 25.7392C17.2603 25.229 17.3582 24.7155 17.5926 24.2568C17.827 23.798 18.1885 23.4124 18.6361 23.1433C19.0838 22.8743 19.5997 22.7327 20.1256 22.7345C20.4165 22.7328 20.7059 22.7745 20.9839 22.858V19.532C20.6604 19.493 20.3345 19.4771 20.0086 19.4845C18.8084 19.5158 17.6435 19.8874 16.6567 20.5538C15.6698 21.2203 14.9039 22.1527 14.4526 23.2368C14.0014 24.321 13.8843 25.5098 14.1159 26.6577C14.3475 27.8057 14.9176 28.8629 15.7564 29.7C16.6161 30.5516 17.7162 31.135 18.917 31.3761C20.1177 31.6171 21.3649 31.5049 22.5001 31.0537C23.6353 30.6025 24.6072 29.8327 25.2923 28.8421C25.9774 27.8515 26.3449 26.6848 26.3479 25.4903V18.8383C27.705 19.7829 29.3323 20.2881 31 20.2828V17.0518C30.6724 17.0531 30.3456 17.0213 30.0247 16.9568H29.9857Z" fill="white"/>
</svg>
