<?xml version="1.0" encoding="UTF-8" standalone="no"?>
<!DOCTYPE svg PUBLIC "-//W3C//DTD SVG 1.1//EN" "http://www.w3.org/Graphics/SVG/1.1/DTD/svg11.dtd">
<svg width="100%" height="100%" viewBox="0 0 1537 237" version="1.1" xmlns="http://www.w3.org/2000/svg" xmlns:xlink="http://www.w3.org/1999/xlink" xml:space="preserve" xmlns:serif="http://www.serif.com/" style="fill-rule:evenodd;clip-rule:evenodd;stroke-linejoin:round;stroke-miterlimit:2;">
    <g transform="matrix(1,0,0,1,-130.392,-268.637)">
        <g transform="matrix(4.16667,0,0,4.16667,0,0)">
            <path d="M398.374,77.877C398.325,79.73 397.674,80.502 395.821,80.724C392.436,81.131 389.042,81.447 385.727,81.793C382.503,81.468 379.387,81.173 376.277,80.832C374.559,80.643 373.778,79.849 373.698,78.101C373.617,76.328 373.627,74.546 373.695,72.771C373.755,71.225 374.761,70.168 376.285,69.899C382.801,68.746 389.317,68.861 395.826,69.946C397.474,70.221 398.335,71.26 398.376,72.967C398.416,74.602 398.418,76.241 398.374,77.877ZM396.01,68.316C389.361,67.173 382.701,67.062 376.044,68.278C373.82,68.683 372.318,70.031 372.112,72.252C371.914,74.381 371.911,76.565 372.145,78.689C372.405,81.031 373.599,82.181 375.674,82.432C379.013,82.836 382.367,83.133 385.8,83.484C389.328,83.102 392.906,82.72 396.483,82.327C398.352,82.122 399.565,81.053 399.782,79.234C400.025,77.204 400.025,75.138 400.027,73.088C400.029,70.464 398.602,68.761 396.01,68.316Z" style="fill:black;fill-rule:nonzero;"/>
            <rect x="111.237" y="64.473" width="1.158" height="56.802" style="fill:black;fill-rule:nonzero;"/>
            <path d="M174.385,76.117L159.939,103.469L145.495,76.115L138.845,76.115L138.845,107.994L142.596,107.994L142.596,79.866L143.234,79.866L158.088,107.994L161.793,107.994L176.646,79.866L177.283,79.866L177.283,107.994L181.033,107.994L181.033,76.115L174.385,76.115L174.385,76.117Z" style="fill:black;fill-rule:nonzero;"/>
            <path d="M194.282,97.367L202.311,79.866L205.753,79.866L213.783,97.367L194.282,97.367ZM199.905,76.115L185.28,107.994L189.407,107.994L192.561,101.118L215.504,101.118L218.657,107.994L222.785,107.994L208.159,76.115L199.905,76.115Z" style="fill:black;fill-rule:nonzero;"/>
            <path d="M260.775,104.243L259.523,104.243L233.67,76.115L227.02,76.115L227.02,107.994L230.771,107.994L230.771,79.866L231.837,79.866L257.877,107.994L264.526,107.994L264.526,76.115L260.775,76.115L260.775,104.243Z" style="fill:black;fill-rule:nonzero;"/>
            <path d="M274.96,81.292C274.982,80.843 275.17,80.421 275.489,80.102C275.808,79.785 276.23,79.599 276.679,79.578C281.189,79.371 285.328,79.266 289.839,79.266C294.348,79.266 298.487,79.371 302.999,79.578C303.446,79.599 303.869,79.785 304.188,80.102C304.507,80.421 304.695,80.843 304.718,81.292C304.763,82.214 304.804,83.138 304.838,84.064L308.59,84.064C308.554,83.077 308.512,82.091 308.463,81.105C308.319,78.247 306.027,75.963 303.169,75.831C298.579,75.621 294.427,75.516 289.837,75.516C285.248,75.516 281.095,75.621 276.506,75.831C273.647,75.963 271.355,78.247 271.213,81.105C271.163,82.091 271.12,83.077 271.085,84.064L271.093,88.655C271.236,91.513 273.528,93.797 276.386,93.928L303.125,93.928C303.573,93.949 303.996,94.134 304.314,94.452C304.633,94.77 304.821,95.192 304.844,95.642L304.836,100.045C304.802,100.97 304.761,101.894 304.716,102.816C304.692,103.265 304.505,103.688 304.185,104.006C303.867,104.324 303.444,104.51 302.996,104.53C298.485,104.737 294.346,104.843 289.836,104.843C285.325,104.843 281.186,104.737 276.677,104.53C276.227,104.51 275.805,104.324 275.487,104.006C275.168,103.688 274.979,103.265 274.957,102.816C274.911,101.894 274.871,100.97 274.837,100.045L271.084,100.045C271.12,101.031 271.163,102.017 271.212,103.004C271.355,105.862 273.647,108.145 276.506,108.277C281.095,108.487 285.248,108.593 289.837,108.593C294.427,108.593 298.58,108.487 303.169,108.277C306.027,108.146 308.319,105.862 308.463,103.004C308.512,102.017 308.554,101.031 308.59,100.045L308.586,95.454C308.442,92.596 306.15,90.312 303.293,90.181L276.553,90.181C276.105,90.16 275.682,89.974 275.364,89.656C275.046,89.339 274.857,88.916 274.835,88.467L274.839,84.064C274.874,83.138 274.914,82.214 274.96,81.292Z" style="fill:black;fill-rule:nonzero;"/>
            <rect x="315.148" y="76.115" width="3.751" height="31.879" style="fill:black;fill-rule:nonzero;"/>
            <path d="M360.507,102.803C360.484,103.253 360.296,103.675 359.977,103.993C359.658,104.311 359.236,104.497 358.787,104.517C354.276,104.724 349.702,104.83 345.191,104.83C340.681,104.83 336.107,104.724 331.596,104.517C331.148,104.497 330.726,104.311 330.407,103.993C330.088,103.675 329.9,103.253 329.877,102.803C329.52,95.673 329.52,88.44 329.878,81.305C329.9,80.856 330.088,80.433 330.407,80.115C330.726,79.798 331.148,79.612 331.597,79.591C336.107,79.384 340.681,79.279 345.191,79.279C349.702,79.279 354.276,79.384 358.787,79.591C359.236,79.612 359.658,79.798 359.976,80.115C360.296,80.433 360.484,80.856 360.507,81.305C360.864,88.44 360.864,95.673 360.507,102.803ZM358.958,75.844C354.37,75.634 349.781,75.529 345.191,75.529C340.602,75.529 336.013,75.634 331.425,75.844C328.566,75.975 326.274,78.26 326.131,81.117C325.766,88.409 325.766,95.701 326.131,102.991C326.274,105.848 328.566,108.133 331.425,108.264C336.013,108.474 340.602,108.58 345.191,108.58C349.78,108.58 354.37,108.474 358.959,108.264C361.817,108.133 364.109,105.848 364.252,102.991C364.618,95.701 364.618,88.409 364.252,81.117C364.109,78.26 361.817,75.975 358.958,75.844Z" style="fill:black;fill-rule:nonzero;"/>
            <path d="M378.709,72.768C378.777,72.7 378.867,72.66 378.963,72.656C379.925,72.612 380.899,72.59 381.861,72.59C382.822,72.59 383.798,72.612 384.759,72.656C384.854,72.66 384.944,72.7 385.012,72.768C385.081,72.836 385.121,72.926 385.126,73.022C385.135,73.219 385.144,73.416 385.151,73.614L385.951,73.614C385.943,73.403 385.934,73.192 385.924,72.982C385.893,72.372 385.405,71.886 384.796,71.857C383.817,71.813 382.839,71.79 381.861,71.79C380.883,71.79 379.904,71.813 378.926,71.857C378.316,71.886 377.828,72.372 377.798,72.982C377.719,74.536 377.719,76.091 377.798,77.644C377.828,78.254 378.316,78.741 378.926,78.769C379.904,78.814 380.883,78.836 381.861,78.836C382.839,78.836 383.817,78.814 384.796,78.769C385.405,78.741 385.893,78.254 385.925,77.644C385.934,77.434 385.943,77.224 385.951,77.014L385.951,76.05C385.921,75.441 385.432,74.954 384.823,74.926L380.437,74.926L380.437,75.73L384.786,75.724C384.882,75.729 384.971,75.769 385.04,75.836C385.108,75.904 385.148,75.994 385.153,76.09L385.151,77.014C385.144,77.211 385.135,77.408 385.126,77.605C385.121,77.7 385.081,77.79 385.012,77.858C384.944,77.926 384.854,77.966 384.759,77.97C383.798,78.014 382.822,78.036 381.861,78.036C380.899,78.036 379.925,78.014 378.963,77.97C378.867,77.966 378.777,77.926 378.709,77.858C378.64,77.79 378.6,77.7 378.595,77.605C378.519,76.084 378.519,74.543 378.595,73.022C378.6,72.926 378.64,72.836 378.709,72.768Z" style="fill:black;fill-rule:nonzero;"/>
            <path d="M388.145,75.313L388.145,72.714L393.675,72.714C393.77,72.719 393.86,72.759 393.927,72.826C393.996,72.894 394.035,72.985 394.04,73.08L394.04,74.959C394.036,75.055 393.995,75.145 393.927,75.213C393.859,75.281 393.769,75.321 393.674,75.325L388.145,75.313ZM393.711,76.123C394.319,76.096 394.808,75.609 394.839,74.999L394.839,73.044C394.81,72.434 394.323,71.946 393.714,71.915L387.346,71.915L387.346,78.711L388.145,78.711L388.145,76.123L390.117,76.123L393.922,78.711L395.341,78.71L391.539,76.123L393.711,76.123Z" style="fill:black;fill-rule:nonzero;"/>
            <path d="M71.626,64.473L59.979,85.211C59.826,85.484 59.432,85.484 59.279,85.211L47.631,64.473L31.294,64.473L31.294,121.275L45.129,100.915C45.288,100.681 45.634,100.681 45.794,100.915L59.629,121.275L73.464,100.915C73.623,100.681 73.969,100.681 74.128,100.915L87.963,121.275L87.963,64.473L71.626,64.473Z" style="fill:black;fill-rule:nonzero;"/>
        </g>
    </g>
</svg>
